<svg xmlns="http://www.w3.org/2000/svg" width="760" height="420" viewBox="0 0 760 420" fill="none">
  <defs>
    <linearGradient id="sky" x1="0" y1="0" x2="0" y2="1">
      <stop offset="0" stop-color="#f8efe2"/>
      <stop offset="1" stop-color="#e4d0b7"/>
    </linearGradient>
    <linearGradient id="mist" x1="0" y1="0" x2="1" y2="0">
      <stop offset="0" stop-color="#ffffff" stop-opacity="0.7"/>
      <stop offset="1" stop-color="#f0e0cc" stop-opacity="0.2"/>
    </linearGradient>
  </defs>
  <rect width="760" height="420" fill="url(#sky)"/>
  <circle cx="600" cy="120" r="52" fill="#f2c37d" opacity="0.6"/>
  <path d="M40 320L170 190L300 320H40Z" fill="#cfa17a"/>
  <path d="M180 340L340 170L520 340H180Z" fill="#b98161"/>
  <path d="M420 340L560 200L720 340H420Z" fill="#a86c54"/>
  <path d="M0 360C120 330 240 330 360 360C480 390 600 390 760 360V420H0V360Z" fill="#8b5a44"/>
  <path d="M60 280C140 250 260 250 340 280" stroke="#ffffff" stroke-opacity="0.45" stroke-width="10" stroke-linecap="round"/>
  <path d="M300 260C380 230 500 230 580 260" stroke="#ffffff" stroke-opacity="0.3" stroke-width="8" stroke-linecap="round"/>
  <rect y="300" width="760" height="120" fill="url(#mist)" opacity="0.45"/>
</svg>
